<svg width="24" height="31" viewBox="0 0 24 31" fill="none" xmlns="http://www.w3.org/2000/svg">
<path d="M10.2031 0.149999C9.7125 0.443749 8.50937 1.14687 8.3125 1.25625C8.2 1.31562 7.79375 1.55 7.40625 1.77812C7.01875 2.00625 6.64062 2.22812 6.5625 2.27187C6.48437 2.31562 6.37187 2.38125 6.3125 2.41875C6.25312 2.45625 6.09062 2.54687 5.95312 2.62187C5.81562 2.69687 5.56875 2.8375 5.40625 2.93437C5.24375 3.03125 4.95625 3.2 4.76562 3.30937C4.57812 3.41875 4.325 3.56562 4.20312 3.6375C4.08437 3.7125 3.80625 3.86875 3.59062 3.99062C3.375 4.1125 3.10625 4.26562 2.99687 4.33125C2.79062 4.45937 1.66562 5.1125 1.39062 5.26562C1.30625 5.3125 0.996875 5.49062 0.703125 5.6625C0.4125 5.83437 0.134375 5.99687 0.0875 6.025L0 6.075L0.009375 11.075L0.015625 16.075L6.68125 16.0844L13.3437 16.0906V21.1687C13.3437 23.9625 13.3375 26.2469 13.3281 26.2469C13.3219 26.2469 13.0844 26.1187 12.8062 25.9594C12.525 25.8031 12.2344 25.6406 12.1562 25.5969C12.0781 25.5531 12.0031 25.5094 11.9844 25.4969C11.9562 25.475 11.4375 25.1875 10.875 24.8812C10.7812 24.8312 10.5344 24.6906 10.3281 24.575C9.50625 24.1062 9.07187 23.8594 8.96875 23.8C8.90937 23.7656 8.80312 23.7094 8.73437 23.675C8.61562 23.6156 7.65312 23.0719 6.875 22.6281C6.67812 22.5156 6.45937 22.3969 6.39062 22.3625C6.32187 22.3281 5.90625 22.0969 5.46875 21.8469C5.03125 21.6 4.60312 21.3562 4.51562 21.3094C4.43125 21.2594 4.30312 21.1906 4.23437 21.15C4.16562 21.1125 4.025 21.0344 3.92187 20.9781C3.81875 20.9219 3.65 20.8312 3.54687 20.7719L3.35937 20.6656L3.35 19.675L3.34375 18.6844H1.67187H0V20.5687V22.4562L0.49375 22.7469C1.78437 23.5125 1.96562 23.6187 2.14062 23.7156C2.24375 23.7719 2.53125 23.9406 2.78125 24.0906C3.14062 24.3062 3.81875 24.7062 4.15625 24.9031C4.36875 25.0281 5.16875 25.4906 5.28125 25.5531C5.35937 25.5969 5.45625 25.6562 5.5 25.6844C5.54375 25.7156 5.76875 25.8469 6 25.9812C6.67812 26.375 7.60312 26.9187 8.125 27.2312C8.39062 27.3906 8.67187 27.5531 8.75 27.5906C8.82812 27.6312 9.13125 27.8062 9.42187 27.9781C9.71562 28.1531 10.1625 28.4219 10.4187 28.5781C10.675 28.7312 10.9 28.8625 10.9187 28.8687C10.9375 28.875 11.1937 29.0219 11.4844 29.1937C11.7781 29.3656 12.1344 29.5781 12.2812 29.6625C12.4281 29.7469 12.6969 29.9062 12.8781 30.0156C13.3719 30.3125 13.3375 30.3156 14.1625 29.7906C14.5281 29.5562 15.075 29.2094 15.375 29.0219C16.0219 28.6187 16.4906 28.3187 16.6062 28.2312L16.6906 28.1687L16.7125 24.5906C16.7469 19.0062 16.7375 13.0906 16.6937 12.9875L16.6562 12.9031H10C6.34062 12.9031 3.34375 12.8937 3.34375 12.8781C3.34062 11.8625 3.34375 7.57812 3.35 7.575C3.35625 7.57187 3.74687 7.37187 4.21875 7.12812C4.69062 6.8875 5.38125 6.5375 5.75 6.34687C6.11875 6.15937 6.80312 5.8125 7.26562 5.575C9.325 4.525 10.4125 3.96562 10.4469 3.9375C10.4594 3.925 10.4656 3.03437 10.4625 1.95937L10.4531 -8.31738e-07L10.2031 0.149999Z" fill="#C50202"/>
<path d="M17.406 2.98447C16.7466 3.10322 16.3966 3.21572 15.9685 3.44072C15.0685 3.91572 14.5029 4.47509 14.0279 5.35322C13.5248 6.28447 13.3935 7.47509 13.6748 8.54384C13.881 9.33134 14.356 10.1157 14.9623 10.6657C15.681 11.3157 16.5248 11.7063 17.4216 11.8095C17.8998 11.8626 18.0529 11.8532 18.1404 11.7626C18.2435 11.6626 18.2435 11.5188 18.1404 11.422C18.0748 11.3595 18.0185 11.347 17.7248 11.3313C17.2248 11.3032 16.6154 11.1376 16.181 10.9157C16.0029 10.8251 15.5623 10.5251 15.3748 10.3688C14.8091 9.90009 14.306 9.04384 14.1185 8.24072C14.0185 7.82197 14.0216 6.95322 14.1216 6.54697C14.4654 5.14697 15.4029 4.10947 16.7279 3.66884C18.6216 3.04072 20.6998 3.92822 21.5279 5.72509C21.7341 6.16259 21.8685 6.64697 21.8841 6.99697L21.8904 7.13759H20.0466H18.2029L18.1873 6.33759C18.1716 5.48447 18.1654 5.45947 18.0091 5.40009C17.9216 5.36884 17.7591 5.42197 17.7185 5.49697C17.6998 5.53134 17.6873 5.90322 17.6873 6.38134V7.20322L17.4685 7.46884C17.3466 7.61259 17.1873 7.80009 17.1154 7.88759C16.3841 8.74697 16.0623 9.13759 16.0623 9.16572C16.0654 9.20634 16.3841 9.46572 16.4248 9.46259C16.456 9.45947 16.6498 9.23447 17.1779 8.59072C17.3685 8.35947 17.6216 8.05634 17.7404 7.91884L17.956 7.66884L20.1123 7.65322C22.4248 7.63759 22.3466 7.64384 22.406 7.48134C22.4435 7.37822 22.3779 6.72509 22.2966 6.37509C22.0529 5.35947 21.4404 4.43447 20.6216 3.84384C20.0685 3.44072 19.506 3.18447 18.8748 3.04384C18.6466 2.99384 17.5935 2.95009 17.406 2.98447Z" fill="black"/>
<path d="M23.5156 7.55979C23.025 7.73479 22.5813 7.95979 22.1281 8.26291C21.2688 8.83479 20.5938 9.45041 19.7094 10.4723C19.5188 10.6942 19.3531 10.8723 19.3406 10.8723C19.325 10.8723 19.2438 10.7942 19.1531 10.7004C18.7969 10.3254 18.1875 10.0129 17.85 10.0348C17.6156 10.0504 17.6344 10.1285 17.9344 10.3973C18.1719 10.6129 18.4406 10.9379 18.5906 11.2004C18.775 11.516 18.9719 11.9098 19.0625 12.1442C19.1594 12.4035 19.2625 12.5285 19.3781 12.5285C19.4813 12.5285 19.5906 12.391 19.7844 12.0129C20.3188 10.9785 21.1063 9.88791 21.8563 9.13479C22.5625 8.43166 23.0281 8.06916 23.6844 7.71604C23.8969 7.60041 24 7.52541 24 7.48791C24 7.40666 23.9031 7.42229 23.5156 7.55979Z" fill="black"/>
<path d="M17.2188 20.5442C17.2188 24.7285 17.2281 28.1535 17.2375 28.1535C17.25 28.1535 17.6031 28.0223 18.0281 27.8629C18.45 27.7004 18.925 27.5254 19.0781 27.4692C19.2344 27.4098 19.5563 27.2879 19.7969 27.1942C20.0375 27.1004 20.3094 26.9942 20.4 26.9598L20.5625 26.9004V19.916C20.5625 16.0754 20.5563 12.9348 20.5469 12.9348C20.5375 12.9348 20.4688 12.9848 20.3906 13.0442C20.1469 13.2285 19.7594 13.4004 19.4375 13.466C18.9313 13.5692 18.4563 13.5348 17.9813 13.3567C17.75 13.2692 17.3813 13.0629 17.3125 12.9848C17.2906 12.9567 17.2625 12.9348 17.2469 12.9348C17.2313 12.9348 17.2188 16.2004 17.2188 20.5442Z" fill="black"/>
</svg>
